<svg xmlns="http://www.w3.org/2000/svg"
 xmlns:xlink="http://www.w3.org/1999/xlink"
 width="30px" height="27px"  viewBox="0 0 30 27">
<path fill-rule="evenodd"  fill="#ef5b70"
 d="M2.9614258,3.9559326 C2.9614258,3.9559326 5.7183228,3.9559326 5.7183228,3.9559326 C5.7183228,3.9559326 9.645264,18.401611 9.645264,18.401611 C9.757385,18.82544 10.142029,19.118896 10.57489,19.118896 C10.57489,19.118896 22.644226,19.118896 22.644226,19.118896 C23.02893,19.118896 23.365479,18.890747 23.525696,18.531738 C23.525696,18.531738 27.917542,8.260498 27.917542,8.260498 C28.045715,7.9505615 28.013672,7.6081543 27.837341,7.3309326 C27.661133,7.053833 27.356506,6.890869 27.035889,6.890869 C27.035889,6.890869 13.7005005,6.890869 13.7005005,6.890869 C13.171448,6.890869 12.7387085,7.3309326 12.7387085,7.8688965 C12.7387085,8.406982 13.171448,8.847168 13.7005005,8.847168 C13.7005005,8.847168 25.561401,8.847168 25.561401,8.847168 C25.561401,8.847168 22.003174,17.16211 22.003174,17.16211 C22.003174,17.16211 11.296143,17.16211 11.296143,17.16211 C11.296143,17.16211 7.3693237,2.717163 7.3693237,2.717163 C7.25708,2.2928467 6.8724365,1.9993896 6.4396973,1.9993896 C6.4396973,1.9993896 2.9614258,1.9993896 2.9614258,1.9993896 C2.432495,1.9993896 1.9997559,2.4395752 1.9997559,2.977539 C1.9997559,3.5159912 2.432495,3.9559326 2.9614258,3.9559326 ZM9.661255,25.999512 C10.863403,25.999512 11.841064,25.004639 11.841064,23.78186 C11.841064,22.55957 10.863403,21.564575 9.661255,21.564575 C8.459106,21.564575 7.4813843,22.559326 7.4813843,23.78186 C7.4813843,25.004639 8.459106,25.999512 9.661255,25.999512 ZM23.285461,25.999512 C23.333557,25.999512 23.397522,25.999512 23.445618,25.999512 C24.022766,25.950684 24.551636,25.689697 24.93628,25.233154 C25.320984,24.793213 25.497314,24.222046 25.465271,23.619019 C25.38507,22.412476 24.343384,21.48291 23.141174,21.564575 C21.939087,21.64624 21.041504,22.722168 21.12146,23.928833 C21.201782,25.086304 22.14746,25.999512 23.285461,25.999512 Z"/>
</svg>