<svg xmlns="http://www.w3.org/2000/svg" width="32" height="29" viewBox="0 0 32 29"><g><g><path fill="#222" d="M0 1.182C0 .532.533 0 1.184 0h4.28c.533 0 1.007.354 1.145.867l4.833 17.455H24.62l4.379-10.048H14.4a1.186 1.186 0 0 1-1.184-1.182c0-.65.533-1.182 1.184-1.182h16.413c.394 0 .77.197.986.532.217.335.257.749.099 1.123l-5.405 12.412c-.198.433-.612.709-1.085.709H10.554a1.184 1.184 0 0 1-1.144-.867L4.577 2.364H1.184A1.186 1.186 0 0 1 0 1.182zM6.747 26.32a2.684 2.684 0 0 1 5.365 0 2.684 2.684 0 0 1-5.365 0zm16.788.178c-.1-1.458 1.006-2.758 2.485-2.857 1.48-.098 2.762 1.025 2.86 2.483.04.728-.177 1.418-.65 1.95a2.678 2.678 0 0 1-1.835.926h-.197c-1.401 0-2.565-1.103-2.663-2.502z"/></g></g></svg>