<svg xmlns="http://www.w3.org/2000/svg"
 xmlns:xlink="http://www.w3.org/1999/xlink"
 width="51px" height="37px"  viewBox="0 0 51 37">
<path fill-rule="evenodd"  fill="#f16d7f"
 d="M44.374023,9.549072 C41.810425,9.549072 39.726562,11.587891 39.726562,14.091064 C39.726562,15.433594 40.33435,16.630371 41.2865,17.46289 C41.2865,17.46289 35.424683,19.52246 35.424683,19.52246 C35.424683,19.52246 27.08313,9.820557 27.08313,9.820557 C28.881592,9.192871 30.181152,7.529297 30.181152,5.55542 C30.181152,3.050537 28.097168,1.010498 25.534302,1.010498 C22.974121,1.010498 20.888062,3.050537 20.888062,5.55542 C20.888062,7.51001 22.164795,9.163574 23.933838,9.806152 C23.933838,9.806152 15.578857,19.52246 15.578857,19.52246 C15.578857,19.52246 9.719238,17.46289 9.719238,17.46289 C10.670898,16.630371 11.277832,15.433594 11.277832,14.091064 C11.277832,11.587891 9.19397,9.549072 6.631836,9.549072 C4.071045,9.549072 1.9841309,11.587891 1.9841309,14.091064 C1.9841309,16.223877 3.5029297,18.00708 5.531616,18.493408 C5.531616,18.493408 5.531616,30.80835 5.531616,30.80835 C5.531616,30.894531 5.5632324,30.968018 5.581665,31.050049 C5.550049,31.173584 5.531616,31.303223 5.531616,31.43872 C5.531616,35.859375 23.456177,35.989014 25.499512,35.989014 C27.540771,35.989014 45.46753,35.859375 45.46753,31.43872 C45.46753,31.303223 45.448364,31.173584 45.41748,31.050049 C45.439697,30.968018 45.46753,30.894531 45.46753,30.80835 C45.46753,30.80835 45.46753,18.493408 45.46753,18.493408 C47.5,18.00708 49.015747,16.223877 49.015747,14.091064 C49.0188,11.587891 46.934937,9.549072 44.374023,9.549072 ZM23.148682,5.556885 C23.148682,4.2700195 24.21997,3.2226562 25.535645,3.2226562 C26.849121,3.2226562 27.920532,4.2700195 27.920532,5.556885 C27.920532,6.843506 26.849121,7.8896484 25.535645,7.8896484 C24.21997,7.8896484 23.148682,6.843506 23.148682,5.556885 ZM15.556152,21.865479 C15.999023,22.017822 16.498047,21.888428 16.802612,21.534424 C16.802612,21.534424 25.501099,11.415039 25.501099,11.415039 C25.501099,11.415039 34.20166,21.534424 34.20166,21.534424 C34.504883,21.888428 35.00232,22.017822 35.446777,21.8667 C35.446777,21.8667 43.20703,19.135986 43.20703,19.135986 C43.20703,19.135986 43.20703,29.092773 43.20703,29.092773 C38.320923,26.967041 27.093384,26.88794 25.499512,26.88794 C23.906494,26.88794 12.676758,26.967041 7.7921143,29.092773 C7.7921143,29.092773 7.7921143,19.134766 7.7921143,19.134766 C7.7921143,19.134766 15.556152,21.865479 15.556152,21.865479 ZM25.502563,33.778564 C16.795166,33.778564 11.249268,32.765625 8.940796,31.913574 C8.486816,31.746582 8.147705,31.581055 7.944458,31.43872 C8.666382,30.91626 11.006226,30.203613 14.912964,29.703125 C17.667358,29.348877 21.192627,29.098389 25.502563,29.098389 C29.81311,29.098389 33.339355,29.348877 36.09436,29.703125 C40.000122,30.203613 42.341675,30.91626 43.06128,31.43872 C42.858276,31.585205 42.519775,31.746582 42.06653,31.913574 C39.75879,32.765625 34.213623,33.778564 25.502563,33.778564 ZM4.2490234,14.091064 C4.2490234,12.805664 5.3204346,11.7595215 6.6361084,11.7595215 C7.9519043,11.7595215 9.0217285,12.805664 9.0217285,14.091064 C9.0217285,15.37793 7.9519043,16.425293 6.6361084,16.425293 C5.3204346,16.425293 4.2490234,15.37793 4.2490234,14.091064 ZM44.374023,16.425293 C43.05847,16.425293 41.98706,15.37793 41.98706,14.091064 C41.98706,12.805664 43.05847,11.7595215 44.374023,11.7595215 C45.686768,11.7595215 46.76111,12.805664 46.76111,14.091064 C46.7583,15.37793 45.686768,16.425293 44.374023,16.425293 Z"/>
</svg>