<svg xmlns="http://www.w3.org/2000/svg"
 xmlns:xlink="http://www.w3.org/1999/xlink"
 width="42px" height="44px"  viewBox="0 0 42 44">
<path fill-rule="evenodd"  fill="#f16d7f"
 d="M25.782593,20.501465 C23.88855,20.501465 22.323486,22.132568 22.323486,25.064941 C22.343994,27.974121 23.88855,29.42627 25.671509,29.42627 C27.501587,29.42627 29.087158,27.905273 29.087158,24.839355 C29.088013,22.067383 27.788574,20.501465 25.782593,20.501465 ZM25.716797,28.24121 C24.526733,28.24121 23.8219,26.832275 23.844116,24.976562 C23.844116,23.141602 24.505371,21.6875 25.716797,21.6875 C27.059814,21.6875 27.566406,23.16333 27.566406,24.932129 C27.566406,26.85376 26.994019,28.24121 25.716797,28.24121 ZM19.768188,18.822754 C19.768188,16.049805 18.446533,14.482422 16.441406,14.482422 C14.546509,14.482422 12.983032,16.1167 12.983032,19.023926 C13.005249,21.953857 14.547363,23.407959 16.331299,23.407959 C18.182495,23.407959 19.768188,21.886963 19.768188,18.822754 ZM14.5251465,18.958008 C14.5251465,17.122314 15.165894,15.668945 16.37561,15.668945 C17.719482,15.668945 18.226074,17.14502 18.226074,18.913818 C18.226074,20.836426 17.652832,22.223633 16.37561,22.223633 C15.165894,22.221924 14.480713,20.812744 14.5251465,18.958008 ZM24.614746,14.638184 C24.614746,14.638184 16.19873,29.387207 16.19873,29.387207 C16.19873,29.387207 17.43164,29.387207 17.43164,29.387207 C17.43164,29.387207 25.848389,14.638184 25.848389,14.638184 C25.848389,14.638184 24.614746,14.638184 24.614746,14.638184 ZM37.58423,24.9729 C37.58423,24.9729 40.99646,21.999023 40.99646,21.999023 C40.99646,21.999023 37.58423,19.02832 37.58423,19.02832 C37.58423,19.02832 39.794434,15.053955 39.794434,15.053955 C39.794434,15.053955 35.585083,13.450439 35.585083,13.450439 C35.585083,13.450439 36.31726,8.947266 36.31726,8.947266 C36.31726,8.947266 31.822632,8.9021 31.822632,8.9021 C31.822632,8.9021 31.001709,4.4123535 31.001709,4.4123535 C31.001709,4.4123535 26.760864,5.927002 26.760864,5.927002 C26.760864,5.927002 24.472046,1.9978027 24.472046,1.9978027 C24.472046,1.9978027 21.0,4.9016113 21.0,4.9016113 C21.0,4.9016113 17.528076,1.9978027 17.528076,1.9978027 C17.528076,1.9978027 15.23938,5.9260254 15.23938,5.9260254 C15.23938,5.9260254 10.99939,4.411377 10.99939,4.411377 C10.99939,4.411377 10.17749,8.900879 10.17749,8.900879 C10.17749,8.900879 5.682007,8.9453125 5.682007,8.9453125 C5.682007,8.9453125 6.415039,13.448975 6.415039,13.448975 C6.415039,13.448975 2.204956,15.052246 2.204956,15.052246 C2.204956,15.052246 4.415039,19.025635 4.415039,19.025635 C4.415039,19.025635 1.0029297,21.999023 1.0029297,21.999023 C1.0029297,21.999023 4.415039,24.971191 4.415039,24.971191 C4.415039,24.971191 2.204956,28.9458 2.204956,28.9458 C2.204956,28.9458 6.4141846,30.54712 6.4141846,30.54712 C6.4141846,30.54712 5.682007,35.053467 5.682007,35.053467 C5.682007,35.053467 10.176636,35.09839 10.176636,35.09839 C10.176636,35.09839 10.997681,39.588135 10.997681,39.588135 C10.997681,39.588135 15.238525,38.07251 15.238525,38.07251 C15.238525,38.07251 17.527222,42.00171 17.527222,42.00171 C17.527222,42.00171 20.999146,39.0979 20.999146,39.0979 C20.999146,39.0979 24.470337,42.00171 24.470337,42.00171 C24.470337,42.00171 26.759033,38.07251 26.759033,38.07251 C26.759033,38.07251 30.999146,39.588867 30.999146,39.588867 C30.999146,39.588867 31.82019,35.099365 31.82019,35.099365 C31.82019,35.099365 36.31555,35.053467 36.31555,35.053467 C36.31555,35.053467 35.58264,30.550537 35.58264,30.550537 C35.58264,30.550537 39.792725,28.946533 39.792725,28.946533 C39.792725,28.946533 37.58423,24.9729 37.58423,24.9729 ZM34.9187,28.74707 C34.9187,28.74707 33.459473,29.302979 33.459473,29.302979 C33.459473,29.302979 33.713257,30.865479 33.713257,30.865479 C33.713257,30.865479 34.08496,33.152588 34.08496,33.152588 C34.08496,33.152588 31.802979,33.174316 31.802979,33.174316 C31.802979,33.174316 30.242188,33.19043 30.242188,33.19043 C30.242188,33.19043 29.95691,34.74878 29.95691,34.74878 C29.95691,34.74878 29.539917,37.026123 29.539917,37.026123 C29.539917,37.026123 27.388672,36.25659 27.388672,36.25659 C27.388672,36.25659 25.920166,35.732666 25.920166,35.732666 C25.920166,35.732666 25.128174,37.09204 25.128174,37.09204 C25.128174,37.09204 23.967163,39.085693 23.967163,39.085693 C23.967163,39.085693 22.205444,37.611816 22.205444,37.611816 C22.205444,37.611816 20.999146,36.604492 20.999146,36.604492 C20.999146,36.604492 19.793701,37.611816 19.793701,37.611816 C19.793701,37.611816 18.032104,39.085693 18.032104,39.085693 C18.032104,39.085693 16.87024,37.09204 16.87024,37.09204 C16.87024,37.09204 16.077515,35.731934 16.077515,35.731934 C16.077515,35.731934 14.608887,36.25586 14.608887,36.25586 C14.608887,36.25586 12.455933,37.02466 12.455933,37.02466 C12.455933,37.02466 12.039917,34.74707 12.039917,34.74707 C12.039917,34.74707 11.754517,33.188965 11.754517,33.188965 C11.754517,33.188965 10.193726,33.172363 10.193726,33.172363 C10.193726,33.172363 7.911865,33.149902 7.911865,33.149902 C7.911865,33.149902 8.283447,30.861328 8.283447,30.861328 C8.283447,30.861328 8.538086,29.298828 8.538086,29.298828 C8.538086,29.298828 7.078003,28.742676 7.078003,28.742676 C7.078003,28.742676 4.944702,27.931396 4.944702,27.931396 C4.944702,27.931396 6.0655518,25.916992 6.0655518,25.916992 C6.0655518,25.916992 6.8320312,24.538086 6.8320312,24.538086 C6.8320312,24.538086 5.6488037,23.507568 5.6488037,23.507568 C5.6488037,23.507568 3.9154053,21.997803 3.9154053,21.997803 C3.9154053,21.997803 5.6505127,20.486816 5.6505127,20.486816 C5.6505127,20.486816 6.8328857,19.456055 6.8328857,19.456055 C6.8328857,19.456055 6.0664062,18.07837 6.0664062,18.07837 C6.0664062,18.07837 4.9455566,16.06372 4.9455566,16.06372 C4.9455566,16.06372 7.0805664,15.250977 7.0805664,15.250977 C7.0805664,15.250977 8.539795,14.69458 8.539795,14.69458 C8.539795,14.69458 8.286011,13.133301 8.286011,13.133301 C8.286011,13.133301 7.9144287,10.846191 7.9144287,10.846191 C7.9144287,10.846191 10.196289,10.82373 10.196289,10.82373 C10.196289,10.82373 11.756226,10.807129 11.756226,10.807129 C11.756226,10.807129 12.041626,9.249756 12.041626,9.249756 C12.041626,9.249756 12.458496,6.9714355 12.458496,6.9714355 C12.458496,6.9714355 14.609741,7.7402344 14.609741,7.7402344 C14.609741,7.7402344 16.07837,8.26416 16.07837,8.26416 C16.07837,8.26416 16.871094,6.904785 16.871094,6.904785 C16.871094,6.904785 18.032104,4.9121094 18.032104,4.9121094 C18.032104,4.9121094 19.793701,6.38501 19.793701,6.38501 C19.793701,6.38501 20.999146,7.392334 20.999146,7.392334 C20.999146,7.392334 22.204712,6.38501 22.204712,6.38501 C22.204712,6.38501 23.967163,4.9121094 23.967163,4.9121094 C23.967163,4.9121094 25.129028,6.9055176 25.129028,6.9055176 C25.129028,6.9055176 25.921875,8.265137 25.921875,8.265137 C25.921875,8.265137 27.39038,7.741211 27.39038,7.741211 C27.39038,7.741211 29.54248,6.9726562 29.54248,6.9726562 C29.54248,6.9726562 29.958618,9.250732 29.958618,9.250732 C29.958618,9.250732 30.243896,10.807861 30.243896,10.807861 C30.243896,10.807861 31.803833,10.824463 31.803833,10.824463 C31.803833,10.824463 34.08667,10.848145 34.08667,10.848145 C34.08667,10.848145 33.714966,13.134033 33.714966,13.134033 C33.714966,13.134033 33.460327,14.696533 33.460327,14.696533 C33.460327,14.696533 34.919556,15.251709 34.919556,15.251709 C34.919556,15.251709 37.05371,16.064453 37.05371,16.064453 C37.05371,16.064453 35.93274,18.080078 35.93274,18.080078 C35.93274,18.080078 35.166504,19.45874 35.166504,19.45874 C35.166504,19.45874 36.34973,20.489502 36.34973,20.489502 C36.34973,20.489502 38.08313,21.99707 38.08313,21.99707 C38.08313,21.99707 36.348877,23.510254 36.348877,23.510254 C36.348877,23.510254 35.16565,24.54004 35.16565,24.54004 C35.16565,24.54004 35.932007,25.917725 35.932007,25.917725 C35.932007,25.917725 37.052856,27.932373 37.052856,27.932373 C37.052856,27.932373 34.9187,28.74707 34.9187,28.74707 Z"/>
</svg>