<svg xmlns="http://www.w3.org/2000/svg"
 xmlns:xlink="http://www.w3.org/1999/xlink"
 width="48px" height="35px"  viewBox="0 0 48 35">
<path fill-rule="evenodd"  fill="#f16d7f"
 d="M13.110474,27.417236 C12.597534,27.417236 12.181885,27.838135 12.181885,28.357178 C12.181885,28.855469 11.781616,29.260986 11.289673,29.260986 C10.797363,29.260986 10.396851,28.855469 10.396851,28.357178 C10.396851,27.858887 10.797363,27.453857 11.289673,27.453857 C11.802368,27.453857 12.218262,27.032959 12.218262,26.513672 C12.218262,25.994629 11.802368,25.57373 11.289673,25.57373 C9.773315,25.57373 8.539795,26.82251 8.539795,28.357178 C8.539795,29.89209 9.773315,31.140625 11.289673,31.140625 C12.805542,31.140625 14.03894,29.89209 14.03894,28.357178 C14.03894,27.83789 13.623291,27.417236 13.110474,27.417236 ZM39.58203,27.417236 C39.06909,27.417236 38.653442,27.838135 38.653442,28.357178 C38.653442,28.855469 38.253174,29.260986 37.76111,29.260986 C37.2688,29.260986 36.86841,28.855469 36.86841,28.357178 C36.86841,27.858887 37.2688,27.453857 37.76111,27.453857 C38.273926,27.453857 38.689697,27.032959 38.689697,26.513672 C38.689697,25.994629 38.273926,25.57373 37.76111,25.57373 C36.244873,25.57373 35.011353,26.82251 35.011353,28.357178 C35.011353,29.89209 36.244873,31.140625 37.76111,31.140625 C39.2771,31.140625 40.510498,29.89209 40.510498,28.357178 C40.510498,27.83789 40.094727,27.417236 39.58203,27.417236 ZM46.871094,15.395996 C46.871094,15.395996 43.311035,9.290283 43.311035,9.290283 C42.090088,7.2280273 40.93799,6.0236816 38.63208,5.8200684 C38.556396,5.7998047 38.47693,5.7890625 38.394897,5.7890625 C38.394897,5.7890625 31.272217,5.7890625 31.272217,5.7890625 C31.272217,5.7890625 31.272217,3.8798828 31.272217,3.8798828 C31.272217,2.8432617 30.439087,1.9997559 29.415161,1.9997559 C29.415161,1.9997559 3.8570557,1.9997559 3.8570557,1.9997559 C2.83313,1.9997559 2.0,2.8432617 2.0,3.8798828 C2.0,3.8798828 2.0,27.417236 2.0,27.417236 C2.0,28.454102 2.83313,29.29712 3.8570557,29.29712 C3.8570557,29.29712 5.7944336,29.29712 5.7944336,29.29712 C6.238159,31.962402 8.532837,33.999756 11.290039,33.999756 C14.046509,33.999756 16.340698,31.962402 16.784302,29.29712 C16.784302,29.29712 32.26599,29.29712 32.26599,29.29712 C32.709717,31.962402 35.004395,33.999756 37.761475,33.999756 C40.518066,33.999756 42.812134,31.962402 43.25586,29.29712 C43.25586,29.29712 46.07141,29.29712 46.07141,29.29712 C46.584106,29.29712 47.0,28.87622 47.0,28.357422 C47.0,28.357422 47.0,15.874023 47.0,15.874023 C47.0,15.705811 46.955444,15.5407715 46.871094,15.395996 ZM43.33484,18.998047 C43.33484,18.479736 43.751343,18.058105 44.263428,18.058105 C44.263428,18.058105 45.142822,18.058105 45.142822,18.058105 C45.142822,18.058105 45.142822,19.908447 45.142822,19.908447 C45.142822,19.908447 43.33484,19.908447 43.33484,19.908447 C43.33484,19.908447 43.33484,18.998047 43.33484,18.998047 ZM44.585938,15.175537 C44.585938,15.175537 36.055664,15.175537 36.055664,15.175537 C35.994507,15.162598 35.931152,15.156006 35.86621,15.156006 C35.343872,15.156006 34.918945,14.725586 34.918945,14.196777 C34.918945,14.196777 34.918945,10.43042 34.918945,10.43042 C34.918945,10.43042 41.819336,10.43042 41.819336,10.43042 C41.819336,10.43042 44.585938,15.175537 44.585938,15.175537 ZM3.8570557,3.8798828 C3.8570557,3.8798828 29.415161,3.8798828 29.415161,3.8798828 C29.415161,3.8798828 29.415161,27.417236 29.415161,27.417236 C29.415161,27.417236 16.784424,27.417236 16.784424,27.417236 C16.341064,24.751953 14.046631,22.7146 11.290039,22.7146 C8.532593,22.7146 6.237793,24.751953 5.7943115,27.417236 C5.7943115,27.417236 3.8570557,27.417236 3.8570557,27.417236 C3.8570557,27.417236 3.8570557,3.8798828 3.8570557,3.8798828 ZM11.290039,32.119873 C9.240234,32.119873 7.572754,30.431885 7.572754,28.356934 C7.572754,26.282227 9.240234,24.594238 11.290039,24.594238 C13.338989,24.594238 15.0061035,26.282227 15.0061035,28.356934 C15.0061035,30.431885 13.338989,32.119873 11.290039,32.119873 ZM37.761475,32.119873 C35.711792,32.119873 34.04431,30.431885 34.04431,28.356934 C34.04431,26.282227 35.711792,24.594238 37.761475,24.594238 C39.810547,24.594238 41.47766,26.282227 41.47766,28.356934 C41.47766,30.431885 39.810547,32.119873 37.761475,32.119873 ZM43.25586,27.417236 C42.8125,24.751953 40.51819,22.7146 37.761475,22.7146 C35.00403,22.7146 32.70935,24.751953 32.26587,27.417236 C32.26587,27.417236 31.272217,27.417236 31.272217,27.417236 C31.272217,27.417236 31.272217,7.6691895 31.272217,7.6691895 C31.272217,7.6691895 37.896973,7.6691895 37.896973,7.6691895 C39.08203,7.6691895 39.822144,7.922119 40.474976,8.550293 C40.474976,8.550293 33.990356,8.550293 33.990356,8.550293 C33.47754,8.550293 33.061768,8.971191 33.061768,9.4904785 C33.061768,9.4904785 33.061768,14.196777 33.061768,14.196777 C33.061768,15.684082 34.19702,16.907715 35.63623,17.026367 C35.70984,17.04541 35.786865,17.05542 35.86621,17.05542 C35.86621,17.05542 42.246704,17.05542 42.246704,17.05542 C41.77063,17.561523 41.47766,18.245605 41.47766,18.997803 C41.47766,18.997803 41.47766,20.848389 41.47766,20.848389 C41.47766,21.367432 41.893433,21.78833 42.40625,21.78833 C42.40625,21.78833 45.142822,21.78833 45.142822,21.78833 C45.142822,21.78833 45.142822,27.417236 45.142822,27.417236 C45.142822,27.417236 43.25586,27.417236 43.25586,27.417236 C43.25586,27.417236 43.25586,27.417236 43.25586,27.417236 ZM6.6815186,7.6691895 C6.6815186,7.6691895 26.590698,7.6691895 26.590698,7.6691895 C27.103516,7.6691895 27.519287,7.248291 27.519287,6.729004 C27.519287,6.210205 27.103516,5.7890625 26.590698,5.7890625 C26.590698,5.7890625 6.6815186,5.7890625 6.6815186,5.7890625 C6.168701,5.7890625 5.7529297,6.210205 5.7529297,6.729004 C5.7529297,7.248291 6.168701,7.6691895 6.6815186,7.6691895 Z"/>
</svg>