<svg xmlns="http://www.w3.org/2000/svg" width="92" height="25" viewBox="0 0 92 25"><g><g><path fill="#fff" d="M.285 23.765c.07-.053.18-.141.33-.264.15-.123.326-.352.528-.687.202-.334.427-.818.673-1.452.246-.633.502-1.495.766-2.587a246.81 246.81 0 0 1 1.307-5.095c.272-1.02.55-2.073.831-3.155.281-1.083.555-2.112.819-3.09.263-.975.501-1.86.712-2.652.212-.793.379-1.407.502-1.848-.335.211-.66.449-.977.713a19.774 19.774 0 0 0-1.821 1.69 2.188 2.188 0 0 1-.528-.634 2.135 2.135 0 0 1-.185-.343 2.183 2.183 0 0 1-.159-.82c0-.28.22-.57.66-.87.229-.159.577-.387 1.043-.686.466-.3 1.043-.594 1.73-.885C7.201.81 8.001.56 8.917.348 9.833.136 10.845.03 11.954.03s2.002.22 2.68.66c.677.44 1.196.977 1.557 1.61.36.634.594 1.303.7 2.006.105.705.132 1.32.079 1.849-.106.985-.423 2.015-.95 3.089-.529 1.073-1.26 2.063-2.192 2.97-.933.907-2.068 1.676-3.405 2.31-1.338.633-2.87.994-4.594 1.082-.141.67-.282 1.355-.422 2.06-.142.703-.29 1.394-.45 2.072a42.45 42.45 0 0 1-.488 1.9c-.167.59-.339 1.096-.515 1.518-.176.458-.405.823-.686 1.096-.282.273-.73.41-1.346.41-.317 0-.612-.08-.885-.238a2.782 2.782 0 0 1-.752-.66zM6.99 9.693a101.69 101.69 0 0 0-.45 2.033c-.052.282-.118.647-.197 1.096-.08.448-.172.955-.277 1.518.475-.07 1.003-.198 1.584-.383a9.95 9.95 0 0 0 1.742-.752c.58-.317 1.148-.7 1.703-1.149a9.455 9.455 0 0 0 1.518-1.557 8.59 8.59 0 0 0 1.148-2.007 8.728 8.728 0 0 0 .594-2.494c.088-.88.04-1.615-.145-2.205-.185-.59-.453-1.065-.805-1.426a2.977 2.977 0 0 0-1.215-.765 4.394 4.394 0 0 0-1.372-.225c-.44 0-.872.062-1.294.185a9.272 9.272 0 0 0-1.267.475.524.524 0 0 1 .185.132.991.991 0 0 1 .237.45c-.422 1.707-.77 3.132-1.043 4.276a165.902 165.902 0 0 0-.647 2.798zm17.397 6.099a9.182 9.182 0 0 1-.712 1.874c-.3.581-.656 1.083-1.07 1.505a4.66 4.66 0 0 1-1.399.99 4.042 4.042 0 0 1-1.703.357c-.722 0-1.29-.155-1.702-.462a2.848 2.848 0 0 1-.924-1.149 4.61 4.61 0 0 1-.37-1.504 19.25 19.25 0 0 1-.066-1.532c0-.334.04-.703.119-1.109.079-.404.189-.818.33-1.24.14-.423.32-.846.54-1.268.22-.422.48-.81.78-1.161.105-.3.268-.563.488-.793.22-.228.475-.417.766-.567.29-.15.602-.264.937-.343.334-.08.66-.12.977-.12.053 0 .1.01.145.028.044.017.092.035.145.052.229.018.515.106.858.264.343.159.678.396 1.003.713.326.317.603.717.832 1.201.229.485.343 1.07.343 1.756 0 .14-.009.313-.026.515-.018.202-.036.374-.053.514.405-.158.827-.351 1.267-.58.44-.228.867-.47 1.28-.726.414-.255.797-.516 1.149-.78.35-.262.63-.498.841-.708a4.861 4.861 0 0 1-.313-.307c-.07-.08-.123-.251-.158-.515-.036-.23.017-.528.158-.898.14-.37.326-.726.555-1.069.228-.344.483-.638.765-.884.281-.247.555-.37.818-.37.493 0 .84.158 1.043.475.202.317.321.643.357.977.035.229.017.52-.053.871-.07.352-.203.669-.396.95.053.036.123.075.211.119s.229.066.423.066c.28 0 .479-.017.594-.053.114-.035.294-.052.54-.052.3 0 .546.075.74.224.193.15.352.335.475.554.123.22.216.458.277.713.062.256.101.488.12.7.052.44-.063.898-.344 1.373a21.38 21.38 0 0 1-1.03 1.557c-.246.353-.493.749-.739 1.188-.247.44-.352.837-.317 1.188.035.23.097.414.185.555.088.141.334.21.74.21.298 0 .628-.109.99-.33.36-.219.73-.5 1.108-.844.378-.343.753-.721 1.122-1.135.37-.414.713-.819 1.03-1.214.317-.396.585-.753.805-1.07.22-.316.383-.545.488-.686a.738.738 0 0 1 .184-.204l.08-.443c.176-.96.374-1.989.594-3.089.22-1.1.453-2.16.7-3.181L40.017 7a6.97 6.97 0 0 1-.818.054 6.237 6.237 0 0 1-1.597-.199c-.502-.132-.876-.26-1.122-.382-.14-.07-.202-.172-.185-.304a.946.946 0 0 1 .158-.396c.089-.132.198-.246.33-.343.132-.097.251-.145.357-.145.334.035.695.065 1.082.092a12.04 12.04 0 0 0 2.231-.066c.308-.035.611-.08.91-.132.23-.845.454-1.58.674-2.205.22-.624.418-1.06.594-1.306.053-.088.172-.163.356-.225.185-.061.383-.105.594-.132.212-.026.414-.026.608 0 .193.027.334.092.422.198.088.141.123.502.106 1.083-.018.58-.115 1.32-.29 2.217.739 0 1.394.04 1.966.12.572.079 1.06.167 1.465.263.405.097.73.194.977.29.165.065.302.116.412.154.096-.421.17-.75.222-.985.053-.334.096-.66.132-.977.035-.281.053-.572.053-.871 0-.3-.027-.572-.08-.818a1.99 1.99 0 0 1 .462-.212c.167-.052.33-.096.489-.132.193-.052.387-.096.58-.132.194-.035.37-.052.529-.052.14 0 .272.012.396.04.123.025.202.083.237.17.106.089.154.265.145.529-.009.264-.03.537-.066.818-.07.335-.15.695-.237 1.083a196.39 196.39 0 0 0-.871 3.273 1252.33 1252.33 0 0 0-1.28 4.964c-.538 2.094-1.211 4.734-2.02 7.92a.72.72 0 0 1-.317.184 1.265 1.265 0 0 1-.343.053c-.124 0-.256-.009-.396-.026a1.682 1.682 0 0 1-.37-.159 1.808 1.808 0 0 1-.317-.277 1.09 1.09 0 0 1-.237-.462l.694-2.923a24.102 24.102 0 0 1-1.38 1.616 13.63 13.63 0 0 1-1.849 1.677c-.598.44-1.1.66-1.505.66-.58 0-1.065-.115-1.452-.344a2.715 2.715 0 0 1-.91-.844c-.22-.334-.375-.7-.463-1.096a3.39 3.39 0 0 1-.079-1.095c.017-.265.072-.73.167-1.392a27.155 27.155 0 0 1-1.777 2.25c-.44.502-.902.96-1.386 1.372a8.551 8.551 0 0 1-1.452 1.017c-.485.264-.947.396-1.386.396-.458 0-.836-.088-1.136-.264a2.356 2.356 0 0 1-1.122-1.492 2.723 2.723 0 0 1-.092-.858c.017-.211.075-.435.172-.673.096-.237.21-.483.343-.74.132-.254.273-.51.422-.765.15-.255.286-.505.41-.752.299-.51.54-.946.726-1.307.184-.36.277-.664.277-.911a.841.841 0 0 0-.106-.423c-.07-.122-.185-.185-.343-.185-.106 0-.18.005-.224.014a.635.635 0 0 1-.132.013c-.045 0-.106.005-.185.013-.08.01-.198.014-.357.014-.229 0-.422-.035-.58-.106a2.835 2.835 0 0 0-.45-.159c-.07.124-.228.388-.475.793-.246.405-.532.88-.858 1.425a512.636 512.636 0 0 1-2.046 3.393l-.805 1.32c-.22.36-.356.577-.409.646-.123.194-.26.321-.41.384-.149.06-.28.07-.395.026-.114-.044-.19-.137-.225-.277s0-.317.106-.528l.356-.713c.185-.37.405-.814.66-1.333l.832-1.69a311.242 311.242 0 0 1 1.134-2.276A19.785 19.785 0 0 1 26.052 15a8.294 8.294 0 0 1-1.664.792zM48.73 6.868a4.305 4.305 0 0 1-.594-.105 6.784 6.784 0 0 0-.792-.132 38.11 38.11 0 0 0-1.096-.106 18.273 18.273 0 0 0-1.478-.052c-.106 0-.225.004-.357.013a5.94 5.94 0 0 1-.41.013c-.07.282-.136.56-.197.831a7.717 7.717 0 0 1-.25.858c-.23.705-.494 1.47-.793 2.298a101.019 101.019 0 0 1-2.191 5.464c-.106.757-.093 1.333.04 1.73.131.396.294.682.488.858.228.193.51.3.845.316.264.036.585-.057.963-.276.379-.22.77-.516 1.175-.885.405-.37.814-.775 1.228-1.214.413-.44.796-.872 1.148-1.295.283-.339.537-.652.763-.94a5407.415 5407.415 0 0 0 1.744-7.372.602.602 0 0 1-.236-.004zm-28.803 4.91c-.053.16-.08.327-.08.502 0 .282.018.577.053.885.035.308.123.586.264.831.141.248.365.454.674.62.307.169.734.252 1.28.252a2.692 2.692 0 0 0 .528-.053l.145-.62c.044-.185.066-.348.066-.49a5.053 5.053 0 0 0 0-1.029 4.481 4.481 0 0 0-.198-.963 2.281 2.281 0 0 0-.37-.713c-.15-.184-.33-.277-.54-.277-.335 0-.657.093-.964.277a3.222 3.222 0 0 0-.858.779zm-1.69 4.647c0 .317.017.63.053.938.035.308.105.58.211.818s.246.432.423.58c.175.15.404.225.686.225.317 0 .607-.074.871-.224.264-.15.502-.343.713-.58.211-.238.4-.511.568-.819.167-.308.312-.63.435-.964a5.16 5.16 0 0 1-.739.053c-.67 0-1.245-.198-1.73-.594a3.907 3.907 0 0 1-1.121-1.518c-.106.37-.194.73-.264 1.082-.07.353-.106.686-.106 1.003zM63.66 17.6c-.414.52-.818.995-1.214 1.426-.396.432-.726.735-.99.91a2.785 2.785 0 0 1-.608.265c-.229.07-.462.114-.7.132a2.42 2.42 0 0 1-.672-.04 1.57 1.57 0 0 1-.555-.224c-.158-.123-.29-.3-.396-.529a4.538 4.538 0 0 1-.25-.765c-.08-.316-.11-.713-.093-1.188-.422.705-.889 1.245-1.4 1.624-.51.378-.994.656-1.451.831a5.692 5.692 0 0 1-1.584.344c-.247 0-.511-.084-.792-.251-.282-.168-.52-.431-.713-.792-.194-.36-.317-.827-.37-1.4-.053-.571.018-1.254.211-2.045a9.782 9.782 0 0 1 1.175-2.93c.537-.88 1.122-1.633 1.756-2.258.634-.625 1.258-1.096 1.874-1.412.616-.318 1.126-.458 1.532-.423.475.088.862.229 1.161.423.246.176.41.435.489.778.079.343-.066.797-.436 1.36.246-.053.453-.088.62-.106.167-.017.295-.026.383-.026a.56.56 0 0 1 .211.026c.018.036.027.11.027.225s-.027.321-.08.62c-.052.3-.131.704-.237 1.214-.106.511-.247 1.171-.422 1.98-.036.159-.066.304-.093.436l-.08.397-.091.462-.132.66c-.018.158-.023.33-.014.514.01.185.04.356.093.515a.833.833 0 0 0 .25.383c.115.096.278.145.489.145.176 0 .405-.11.686-.33.282-.22.581-.502.898-.845.317-.343.647-.721.99-1.135.343-.414.664-.814.964-1.202a108.55 108.55 0 0 1 .91-1.162l.12-.553a70.6 70.6 0 0 1 .792-3.327c.122-.106.25-.189.382-.25a2.23 2.23 0 0 1 .41-.146c.14-.053.29-.088.448-.106.14 0 .281.01.422.027.123.017.251.049.383.092.132.044.251.11.357.198a5.908 5.908 0 0 0-.185.515c-.07.22-.141.453-.211.7a9.69 9.69 0 0 1-.264.87c.228-.316.488-.637.779-.963.29-.325.607-.62.95-.884.343-.265.708-.48 1.096-.647.386-.167.782-.25 1.187-.25.335 0 .634.096.898.29.264.194.47.462.62.805.15.343.238.752.265 1.228.026.474-.04.994-.198 1.558l-.29 1.16c-.09.37-.199.805-.33 1.307a31.31 31.31 0 0 1-.49 1.65c-.105.388-.144.722-.118 1.004.026.281.198.422.515.422s.717-.193 1.201-.58c.484-.387.972-.854 1.465-1.4.416-.46.813-.93 1.191-1.409a9.176 9.176 0 0 1 .472-1.706c.352-.915.797-1.712 1.334-2.389a6.533 6.533 0 0 1 1.821-1.611c.678-.396 1.36-.594 2.046-.594.3 0 .572.076.819.224.246.15.457.344.633.581.176.238.321.498.436.78.114.281.198.545.25.792.124-.511.238-1.013.344-1.506.106-.492.211-.959.317-1.399.175-.65.36-1.355.554-2.112l.607-2.244c.229-.845.484-1.733.766-2.666a2.359 2.359 0 0 1 .95-.476c.159-.052.308-.078.45-.078.175 0 .333.022.474.065.141.044.26.159.357.343.096.186.162.463.198.832.035.37.035.872 0 1.505-.036.775-.172 1.62-.41 2.534-.237.916-.55 1.862-.937 2.838a33.253 33.253 0 0 1-1.333 2.931 29.594 29.594 0 0 1-1.623 2.785c-.089.546-.172 1.065-.251 1.558-.08.492-.128.889-.145 1.188-.018.44.061.757.237.95.176.194.37.29.581.29.246 0 .55-.122.91-.369.361-.247.744-.554 1.15-.924.404-.37.809-.774 1.214-1.215.404-.44.778-.857 1.122-1.253.343-.397.633-.744.87-1.043.238-.3.401-.493.49-.581a.597.597 0 0 1 .33-.185c.114-.017.206 0 .276.053.07.053.106.15.106.29 0 .141-.07.317-.211.528-.211.335-.484.727-.819 1.175a27.555 27.555 0 0 1-2.389 2.785c-.449.458-.897.863-1.346 1.215-.449.352-.88.637-1.294.858-.414.22-.788.33-1.122.33-.247 0-.48-.07-.7-.211a2.346 2.346 0 0 1-.594-.555 2.644 2.644 0 0 1-.409-.766 2.154 2.154 0 0 1-.118-.844c.017-.123.043-.334.079-.634-.74.828-1.483 1.483-2.231 1.967-.748.484-1.465.726-2.152.726-.246 0-.51-.062-.792-.185a1.953 1.953 0 0 1-.752-.607c-.22-.282-.4-.65-.541-1.109a4.028 4.028 0 0 1-.16-.963c-.187.228-.38.456-.58.686-.405.467-.827.889-1.267 1.267-.44.38-.876.687-1.307.924-.431.238-.84.357-1.227.357-.405 0-.753-.076-1.043-.225a1.922 1.922 0 0 1-.7-.594 1.999 1.999 0 0 1-.343-.858 2.642 2.642 0 0 1 .053-1.043c.053-.246.14-.576.264-.99.123-.413.25-.862.383-1.346.132-.484.255-.968.37-1.452.114-.484.188-.924.224-1.32.035-.396.017-.722-.053-.977s-.22-.383-.449-.383c-.282 0-.572.093-.871.278-.3.184-.603.435-.91.751-.31.317-.617.683-.925 1.096-.308.414-.612.841-.91 1.281a59.594 59.594 0 0 0-.674 2.785c-.08.361-.154.678-.224.95-.07.274-.132.533-.185.78-.053.175-.211.347-.475.514a4.138 4.138 0 0 1-.845.41c-.3.105-.559.158-.779.158-.22 0-.312-.079-.277-.238.018-.106.075-.343.171-.713l.344-1.307c.132-.5.268-1.033.409-1.597l.003-.012c-.255.334-.516.668-.782 1.002zm-5.584-1.702c.088-.352.194-.766.317-1.242a25.449 25.449 0 0 0 .515-2.468c.044-.29.03-.426-.04-.41a2.524 2.524 0 0 0-.29.08 1.4 1.4 0 0 1-.343.08 3.637 3.637 0 0 0-.423.079c.141-.282.225-.515.251-.7.027-.184.03-.33.013-.436a.63.63 0 0 0-.105-.29c-.194-.159-.533-.03-1.017.383-.484.414-1.042 1.175-1.676 2.283a7.033 7.033 0 0 0-.634 1.466 9.272 9.272 0 0 0-.33 1.465 5.136 5.136 0 0 0-.04 1.201c.036.343.106.568.212.673a.86.86 0 0 0 .66.277c.246-.008.497-.079.752-.21.255-.133.51-.304.766-.515a6.473 6.473 0 0 0 1.188-1.294c.132-.193.207-.334.224-.422zm25.292-.608c.07-.334.136-.669.198-1.003.061-.334.136-.677.224-1.03a.925.925 0 0 0-.092.053.834.834 0 0 1-.092.053c-.194.088-.326.084-.397-.013-.07-.097-.105-.251-.105-.462 0-.106-.01-.294-.026-.568a4.267 4.267 0 0 0-.146-.845 2.358 2.358 0 0 0-.356-.765.768.768 0 0 0-.66-.33c-.405 0-.819.207-1.241.62a8.193 8.193 0 0 0-1.188 1.505c-.37.59-.678 1.219-.924 1.888-.247.669-.387 1.267-.422 1.795-.036.845.07 1.452.316 1.822.247.369.581.554 1.004.554.316 0 .664-.123 1.042-.37a7.253 7.253 0 0 0 1.11-.897c.36-.352.694-.713 1.002-1.083.308-.37.559-.677.753-.924z"/></g></g></svg>